<svg width="50" height="50" viewBox="0 0 50 50" fill="none" xmlns="http://www.w3.org/2000/svg">
<g clip-path="url(#clip0)">
<path d="M25 3.125C11.1836 3.125 2.59555e-10 14.3063 2.59555e-10 28.125V32.8125C-7.47831e-06 33.3929 0.161596 33.9617 0.466701 34.4554C0.771806 34.9491 1.20836 35.3481 1.72744 35.6076L3.13203 36.3099C3.32842 42.178 8.14658 46.875 14.0625 46.875H16.4062C17.7007 46.875 18.75 45.8257 18.75 44.5312V27.3438C18.75 26.0493 17.7007 25 16.4062 25H14.0625C11.0018 25 8.23525 26.2577 6.25 28.2839V28.125C6.25 17.7862 14.6612 9.375 25 9.375C35.3388 9.375 43.75 17.7862 43.75 28.125V28.2839C41.7647 26.2577 38.9982 25 35.9375 25H33.5938C32.2993 25 31.25 26.0493 31.25 27.3438V44.5312C31.25 45.8257 32.2993 46.875 33.5938 46.875H35.9375C41.8534 46.875 46.6716 42.1779 46.868 36.3099L48.2725 35.6076C48.7916 35.3481 49.2281 34.9491 49.5333 34.4554C49.8384 33.9618 50 33.3929 50 32.8125V28.125C50 14.3087 38.8187 3.125 25 3.125Z" fill="url(#paint0_linear)"/>
</g>
<defs>
<linearGradient id="paint0_linear" x1="25" y1="3.125" x2="25" y2="46.875" gradientUnits="userSpaceOnUse">
<stop stop-color="#D3D160"/>
<stop offset="1" stop-color="#736F12" stop-opacity="0.62"/>
</linearGradient>
<clipPath id="clip0">
<rect width="50" height="50" fill="white"/>
</clipPath>
</defs>
</svg>
